<svg width="737" height="240" viewBox="0 0 737 240" fill="none" xmlns="http://www.w3.org/2000/svg">
<path d="M204.75 234C267.71 234 318.75 182.96 318.75 120C318.75 57.0395 267.71 6 204.75 6C141.79 6 90.75 57.0395 90.75 120C90.75 182.96 141.79 234 204.75 234Z" stroke="#8B7355" stroke-width="1.8"/>
<path opacity="0.4" d="M204.75 228C264.397 228 312.75 179.647 312.75 120C312.75 60.3532 264.397 12 204.75 12C145.103 12 96.75 60.3532 96.75 120C96.75 179.647 145.103 228 204.75 228Z" stroke="#D4CFC4" stroke-width="0.6"/>
<path d="M204.75 18V26.4" stroke="#8B7355" stroke-width="2.4" stroke-linecap="round"/>
<path d="M255.75 31.6654L251.55 38.94" stroke="#8B7355" stroke-width="2.4" stroke-linecap="round"/>
<path d="M293.085 69L285.81 73.2" stroke="#8B7355" stroke-width="2.4" stroke-linecap="round"/>
<path d="M306.75 120H298.35" stroke="#8B7355" stroke-width="2.4" stroke-linecap="round"/>
<path d="M293.085 171L285.81 166.8" stroke="#8B7355" stroke-width="2.4" stroke-linecap="round"/>
<path d="M255.75 208.335L251.55 201.06" stroke="#8B7355" stroke-width="2.4" stroke-linecap="round"/>
<path d="M204.75 222V213.6" stroke="#8B7355" stroke-width="2.4" stroke-linecap="round"/>
<path d="M153.75 208.335L157.95 201.06" stroke="#8B7355" stroke-width="2.4" stroke-linecap="round"/>
<path d="M116.415 171L123.69 166.8" stroke="#8B7355" stroke-width="2.4" stroke-linecap="round"/>
<path d="M102.75 120H111.15" stroke="#8B7355" stroke-width="2.4" stroke-linecap="round"/>
<path d="M116.415 69L123.69 73.2" stroke="#8B7355" stroke-width="2.4" stroke-linecap="round"/>
<path d="M153.75 31.6654L157.95 38.94" stroke="#8B7355" stroke-width="2.4" stroke-linecap="round"/>
<path opacity="0.6" d="M222.462 19.5496L221.42 25.4585" stroke="#D4CFC4" stroke-width="1.2" stroke-linecap="round"/>
<path opacity="0.6" d="M239.636 24.1514L237.584 29.7895" stroke="#D4CFC4" stroke-width="1.2" stroke-linecap="round"/>
<path opacity="0.6" d="M270.314 41.8635L266.458 46.4597" stroke="#D4CFC4" stroke-width="1.2" stroke-linecap="round"/>
<path opacity="0.6" d="M282.887 54.4357L278.29 58.2924" stroke="#D4CFC4" stroke-width="1.2" stroke-linecap="round"/>
<path opacity="0.6" d="M300.599 85.114L294.961 87.1661" stroke="#D4CFC4" stroke-width="1.2" stroke-linecap="round"/>
<path opacity="0.6" d="M305.2 102.288L299.292 103.33" stroke="#D4CFC4" stroke-width="1.2" stroke-linecap="round"/>
<path opacity="0.6" d="M305.2 137.712L299.292 136.67" stroke="#D4CFC4" stroke-width="1.2" stroke-linecap="round"/>
<path opacity="0.6" d="M300.599 154.886L294.961 152.834" stroke="#D4CFC4" stroke-width="1.2" stroke-linecap="round"/>
<path opacity="0.6" d="M282.887 185.564L278.29 181.708" stroke="#D4CFC4" stroke-width="1.2" stroke-linecap="round"/>
<path opacity="0.6" d="M270.314 198.137L266.458 193.54" stroke="#D4CFC4" stroke-width="1.2" stroke-linecap="round"/>
<path opacity="0.6" d="M239.636 215.849L237.584 210.211" stroke="#D4CFC4" stroke-width="1.2" stroke-linecap="round"/>
<path opacity="0.6" d="M222.462 220.45L221.42 214.542" stroke="#D4CFC4" stroke-width="1.2" stroke-linecap="round"/>
<path opacity="0.6" d="M187.038 220.45L188.08 214.542" stroke="#D4CFC4" stroke-width="1.2" stroke-linecap="round"/>
<path opacity="0.6" d="M169.864 215.849L171.916 210.211" stroke="#D4CFC4" stroke-width="1.2" stroke-linecap="round"/>
<path opacity="0.6" d="M139.186 198.137L143.042 193.54" stroke="#D4CFC4" stroke-width="1.2" stroke-linecap="round"/>
<path opacity="0.6" d="M126.613 185.564L131.21 181.708" stroke="#D4CFC4" stroke-width="1.2" stroke-linecap="round"/>
<path opacity="0.6" d="M108.901 154.886L114.54 152.834" stroke="#D4CFC4" stroke-width="1.2" stroke-linecap="round"/>
<path opacity="0.6" d="M104.3 137.712L110.208 136.67" stroke="#D4CFC4" stroke-width="1.2" stroke-linecap="round"/>
<path opacity="0.6" d="M104.3 102.288L110.208 103.33" stroke="#D4CFC4" stroke-width="1.2" stroke-linecap="round"/>
<path opacity="0.6" d="M108.901 85.114L114.54 87.1661" stroke="#D4CFC4" stroke-width="1.2" stroke-linecap="round"/>
<path opacity="0.6" d="M126.613 54.4357L131.21 58.2924" stroke="#D4CFC4" stroke-width="1.2" stroke-linecap="round"/>
<path opacity="0.6" d="M139.186 41.8635L143.042 46.4597" stroke="#D4CFC4" stroke-width="1.2" stroke-linecap="round"/>
<path opacity="0.6" d="M169.864 24.1514L171.916 29.7895" stroke="#D4CFC4" stroke-width="1.2" stroke-linecap="round"/>
<path opacity="0.6" d="M187.038 19.5496L188.08 25.4585" stroke="#D4CFC4" stroke-width="1.2" stroke-linecap="round"/>
<path d="M204.75 18L198.75 33.6L204.75 30L210.75 33.6L204.75 18Z" fill="#C9A26D" stroke="#C9A26D" stroke-width="1.2"/>
<path d="M204.75 30V42" stroke="#C9A26D" stroke-width="2.4" stroke-linecap="round"/>
<path d="M306.75 120L291.15 114L294.75 120L291.15 126L306.75 120Z" fill="#C9A26D" stroke="#C9A26D" stroke-width="1.2"/>
<path d="M204.75 222L198.75 206.4L204.75 210L210.75 206.4L204.75 222Z" fill="#D4CFC4" stroke="#D4CFC4" stroke-width="1.2"/>
<path d="M102.75 120L118.35 114L114.75 120L118.35 126L102.75 120Z" fill="#D4CFC4" stroke="#D4CFC4" stroke-width="1.2"/>
<path d="M204.75 204C251.142 204 288.75 166.392 288.75 120C288.75 73.6081 251.142 36 204.75 36C158.358 36 120.75 73.6081 120.75 120C120.75 166.392 158.358 204 204.75 204Z" stroke="#8B7355" stroke-width="1.8"/>
<path opacity="0.3" d="M204.75 201.6C249.816 201.6 286.35 165.066 286.35 120C286.35 74.9336 249.816 38.4 204.75 38.4C159.684 38.4 123.15 74.9336 123.15 120C123.15 165.066 159.684 201.6 204.75 201.6Z" stroke="#D4CFC4" stroke-width="0.6"/>
<path d="M204.75 105.6L214.35 79.8L204.75 54L195.15 79.8L204.75 105.6Z" fill="#C9A26D" stroke="#8B7355" stroke-width="0.6"/>
<path opacity="0.7" d="M214.932 109.818L233.176 100.06L242.934 81.8162L224.69 91.5743L214.932 109.818Z" fill="#D4CFC4" stroke="#D4CFC4" stroke-width="0.6"/>
<path d="M219.15 120L244.95 129.6L270.75 120L244.95 110.4L219.15 120Z" fill="#C9A26D" stroke="#8B7355" stroke-width="0.6"/>
<path opacity="0.7" d="M214.932 130.182L224.69 148.426L242.934 158.184L233.176 139.94L214.932 130.182Z" fill="#D4CFC4" stroke="#D4CFC4" stroke-width="0.6"/>
<path d="M204.75 134.4L195.15 160.2L204.75 186L214.35 160.2L204.75 134.4Z" fill="#C9A26D" stroke="#8B7355" stroke-width="0.6"/>
<path opacity="0.7" d="M194.568 130.182L176.324 139.94L166.566 158.184L184.81 148.426L194.568 130.182Z" fill="#D4CFC4" stroke="#D4CFC4" stroke-width="0.6"/>
<path d="M190.35 120L164.55 110.4L138.75 120L164.55 129.6L190.35 120Z" fill="#C9A26D" stroke="#8B7355" stroke-width="0.6"/>
<path opacity="0.7" d="M194.568 109.818L184.81 91.5743L166.566 81.8162L176.324 100.06L194.568 109.818Z" fill="#D4CFC4" stroke="#D4CFC4" stroke-width="0.6"/>
<path d="M204.75 158.4C225.958 158.4 243.15 141.208 243.15 120C243.15 98.7922 225.958 81.6 204.75 81.6C183.542 81.6 166.35 98.7922 166.35 120C166.35 141.208 183.542 158.4 204.75 158.4Z" stroke="#8B7355" stroke-width="1.2"/>
<path opacity="0.4" d="M204.75 153.6C223.307 153.6 238.35 138.557 238.35 120C238.35 101.443 223.307 86.4 204.75 86.4C186.193 86.4 171.15 101.443 171.15 120C171.15 138.557 186.193 153.6 204.75 153.6Z" stroke="#D4CFC4" stroke-width="0.6"/>
<path d="M204.75 141.6C216.679 141.6 226.35 131.929 226.35 120C226.35 108.071 216.679 98.4 204.75 98.4C192.821 98.4 183.15 108.071 183.15 120C183.15 131.929 192.821 141.6 204.75 141.6Z" stroke="#8B7355" stroke-width="1.8"/>
<path opacity="0.15" d="M204.75 139.2C215.354 139.2 223.95 130.604 223.95 120C223.95 109.396 215.354 100.8 204.75 100.8C194.146 100.8 185.55 109.396 185.55 120C185.55 130.604 194.146 139.2 204.75 139.2Z" fill="#C9A26D"/>
<path d="M204.75 120L199.95 60L204.75 54L209.55 60L204.75 120Z" fill="#3A3330" stroke="#3A3330" stroke-width="1.2"/>
<path opacity="0.6" d="M204.75 120L199.95 180L204.75 186L209.55 180L204.75 120Z" fill="#D4CFC4" stroke="#D4CFC4" stroke-width="1.2"/>
<path d="M204.75 129.6C210.052 129.6 214.35 125.302 214.35 120C214.35 114.698 210.052 110.4 204.75 110.4C199.448 110.4 195.15 114.698 195.15 120C195.15 125.302 199.448 129.6 204.75 129.6Z" fill="#8B7355"/>
<path d="M204.75 127.2C208.726 127.2 211.95 123.976 211.95 120C211.95 116.024 208.726 112.8 204.75 112.8C200.774 112.8 197.55 116.024 197.55 120C197.55 123.976 200.774 127.2 204.75 127.2Z" fill="#C9A26D"/>
<path d="M204.75 123.6C206.738 123.6 208.35 121.988 208.35 120C208.35 118.012 206.738 116.4 204.75 116.4C202.762 116.4 201.15 118.012 201.15 120C201.15 121.988 202.762 123.6 204.75 123.6Z" fill="#3A3330"/>
<path d="M204.75 36C206.075 36 207.15 34.9255 207.15 33.6C207.15 32.2745 206.075 31.2 204.75 31.2C203.424 31.2 202.35 32.2745 202.35 33.6C202.35 34.9255 203.424 36 204.75 36Z" fill="#C9A26D"/>
<path d="M291.15 122.4C292.475 122.4 293.55 121.325 293.55 120C293.55 118.674 292.475 117.6 291.15 117.6C289.825 117.6 288.75 118.674 288.75 120C288.75 121.325 289.825 122.4 291.15 122.4Z" fill="#C9A26D"/>
<path d="M204.75 208.8C206.075 208.8 207.15 207.725 207.15 206.4C207.15 205.075 206.075 204 204.75 204C203.424 204 202.35 205.075 202.35 206.4C202.35 207.725 203.424 208.8 204.75 208.8Z" fill="#C9A26D"/>
<path d="M118.35 122.4C119.675 122.4 120.75 121.325 120.75 120C120.75 118.674 119.675 117.6 118.35 117.6C117.025 117.6 115.95 118.674 115.95 120C115.95 121.325 117.025 122.4 118.35 122.4Z" fill="#C9A26D"/>
<path d="M383.054 90.88C386.638 90.88 389.39 91.264 391.31 92.032C393.23 92.8 394.894 93.632 396.302 94.528C397.07 94.976 397.678 95.328 398.126 95.584C398.638 95.776 399.118 95.872 399.566 95.872C400.206 95.872 400.654 95.52 400.91 94.816C401.23 94.112 401.486 93.056 401.678 91.648H403.886C403.822 92.864 403.726 94.272 403.598 95.872C403.534 97.472 403.47 99.616 403.406 102.304C403.406 104.928 403.406 108.416 403.406 112.768H401.198C401.006 109.504 400.27 106.368 398.99 103.36C397.774 100.352 396.014 97.888 393.71 95.968C391.47 93.984 388.59 92.992 385.07 92.992C381.934 92.992 379.31 93.92 377.198 95.776C375.15 97.632 374.126 100.128 374.126 103.264C374.126 105.952 374.798 108.224 376.142 110.08C377.486 111.872 379.374 113.632 381.806 115.36C384.302 117.024 387.246 118.944 390.638 121.12C393.774 123.168 396.59 125.216 399.086 127.264C401.582 129.248 403.534 131.456 404.942 133.888C406.414 136.32 407.15 139.296 407.15 142.816C407.15 146.976 406.126 150.432 404.078 153.184C402.03 155.936 399.278 157.984 395.822 159.328C392.366 160.672 388.59 161.344 384.494 161.344C380.718 161.344 377.71 160.96 375.47 160.192C373.294 159.424 371.406 158.624 369.806 157.792C368.398 156.896 367.31 156.448 366.542 156.448C365.902 156.448 365.422 156.8 365.102 157.504C364.846 158.208 364.622 159.264 364.43 160.672H362.222C362.35 159.2 362.414 157.472 362.414 155.488C362.478 153.504 362.51 150.944 362.51 147.808C362.574 144.608 362.606 140.576 362.606 135.712H364.814C365.07 139.808 365.774 143.648 366.926 147.232C368.142 150.752 369.966 153.6 372.398 155.776C374.894 157.952 378.19 159.04 382.286 159.04C384.526 159.04 386.542 158.656 388.334 157.888C390.19 157.056 391.662 155.808 392.75 154.144C393.838 152.416 394.382 150.24 394.382 147.616C394.382 144.992 393.774 142.688 392.558 140.704C391.342 138.72 389.646 136.864 387.47 135.136C385.294 133.408 382.734 131.648 379.79 129.856C376.782 127.936 373.966 125.984 371.342 124C368.718 122.016 366.606 119.776 365.006 117.28C363.47 114.72 362.702 111.648 362.702 108.064C362.702 104.096 363.662 100.864 365.582 98.368C367.502 95.808 369.998 93.92 373.07 92.704C376.206 91.488 379.534 90.88 383.054 90.88ZM439.054 109.024C444.686 109.024 449.102 110.72 452.302 114.112C455.502 117.504 457.102 122.912 457.102 130.336H424.75L424.654 128.512H445.966C446.094 125.376 445.902 122.496 445.39 119.872C444.878 117.184 444.046 115.04 442.894 113.44C441.806 111.84 440.366 111.04 438.574 111.04C436.142 111.04 434.03 112.48 432.238 115.36C430.446 118.176 429.326 122.816 428.878 129.28L429.262 129.856C429.134 130.688 429.038 131.584 428.974 132.544C428.974 133.504 428.974 134.464 428.974 135.424C428.974 139.84 429.614 143.488 430.894 146.368C432.174 149.248 433.838 151.36 435.886 152.704C437.934 154.048 440.046 154.72 442.222 154.72C443.694 154.72 445.198 154.496 446.734 154.048C448.27 153.6 449.774 152.768 451.246 151.552C452.718 150.336 454.062 148.608 455.278 146.368L457.102 147.136C456.398 149.376 455.214 151.616 453.55 153.856C451.95 156.032 449.87 157.824 447.31 159.232C444.75 160.64 441.742 161.344 438.286 161.344C433.934 161.344 430.094 160.384 426.766 158.464C423.438 156.544 420.846 153.696 418.99 149.92C417.134 146.08 416.206 141.408 416.206 135.904C416.206 130.08 417.166 125.184 419.086 121.216C421.07 117.248 423.79 114.24 427.246 112.192C430.702 110.08 434.638 109.024 439.054 109.024ZM488.867 109.024C491.235 109.024 493.411 109.312 495.395 109.888C497.443 110.4 499.203 111.136 500.675 112.096C502.211 113.056 503.427 114.272 504.323 115.744C505.219 117.152 505.667 118.72 505.667 120.448C505.667 122.56 505.027 124.256 503.747 125.536C502.467 126.816 500.867 127.456 498.947 127.456C496.963 127.456 495.331 126.88 494.051 125.728C492.835 124.576 492.227 123.04 492.227 121.12C492.227 119.264 492.771 117.728 493.859 116.512C494.947 115.296 496.259 114.496 497.795 114.112C497.219 113.28 496.323 112.608 495.107 112.096C493.891 111.52 492.547 111.232 491.075 111.232C489.155 111.232 487.427 111.744 485.891 112.768C484.355 113.728 483.011 115.2 481.859 117.184C480.771 119.104 479.907 121.504 479.267 124.384C478.691 127.2 478.403 130.464 478.403 134.176C478.403 139.36 479.011 143.456 480.227 146.464C481.507 149.472 483.139 151.616 485.123 152.896C487.107 154.112 489.219 154.72 491.459 154.72C492.803 154.72 494.243 154.464 495.779 153.952C497.315 153.44 498.819 152.576 500.291 151.36C501.827 150.144 503.203 148.416 504.419 146.176L506.243 146.848C505.539 149.088 504.387 151.328 502.787 153.568C501.251 155.808 499.235 157.664 496.739 159.136C494.243 160.608 491.203 161.344 487.619 161.344C483.523 161.344 479.811 160.416 476.483 158.56C473.155 156.64 470.499 153.76 468.515 149.92C466.595 146.08 465.635 141.312 465.635 135.616C465.635 129.984 466.627 125.216 468.611 121.312C470.595 117.344 473.347 114.304 476.867 112.192C480.451 110.08 484.451 109.024 488.867 109.024ZM558.963 109.312V149.632C558.963 152.512 559.443 154.656 560.403 156.064C561.363 157.408 563.059 158.08 565.491 158.08V160.096C563.507 159.904 561.523 159.808 559.539 159.808C557.171 159.808 554.899 159.904 552.723 160.096C550.611 160.288 548.659 160.64 546.867 161.152V151.552C545.267 155.072 543.059 157.6 540.243 159.136C537.491 160.608 534.515 161.344 531.315 161.344C528.819 161.344 526.707 160.992 524.979 160.288C523.315 159.648 521.971 158.752 520.947 157.6C519.859 156.384 519.091 154.784 518.643 152.8C518.195 150.816 517.971 148.256 517.971 145.12V120.832C517.971 117.952 517.491 115.84 516.531 114.496C515.635 113.088 513.939 112.384 511.443 112.384V110.368C513.491 110.56 515.475 110.656 517.395 110.656C519.763 110.656 522.003 110.56 524.115 110.368C526.291 110.112 528.275 109.76 530.067 109.312V148.48C530.067 150.208 530.195 151.744 530.451 153.088C530.771 154.432 531.379 155.52 532.275 156.352C533.171 157.12 534.515 157.504 536.307 157.504C538.291 157.504 540.083 156.928 541.683 155.776C543.283 154.624 544.531 153.056 545.427 151.072C546.387 149.088 546.867 146.848 546.867 144.352V120.832C546.867 117.952 546.387 115.84 545.427 114.496C544.531 113.088 542.835 112.384 540.339 112.384V110.368C542.387 110.56 544.371 110.656 546.291 110.656C548.659 110.656 550.899 110.56 553.011 110.368C555.187 110.112 557.171 109.76 558.963 109.312ZM588.884 84.832V151.072C588.884 153.76 589.364 155.584 590.324 156.544C591.348 157.504 593.044 157.984 595.412 157.984V160C594.26 159.936 592.5 159.872 590.132 159.808C587.828 159.68 585.46 159.616 583.028 159.616C580.66 159.616 578.228 159.68 575.732 159.808C573.3 159.872 571.476 159.936 570.26 160V157.984C572.628 157.984 574.292 157.504 575.252 156.544C576.276 155.584 576.788 153.76 576.788 151.072V96.352C576.788 93.472 576.34 91.36 575.444 90.016C574.548 88.608 572.82 87.904 570.26 87.904V85.888C572.308 86.08 574.292 86.176 576.212 86.176C578.644 86.176 580.916 86.08 583.028 85.888C585.14 85.632 587.092 85.28 588.884 84.832ZM624.305 109.024C628.721 109.024 632.625 109.92 636.017 111.712C639.473 113.44 642.193 116.224 644.177 120.064C646.225 123.904 647.249 128.96 647.249 135.232C647.249 141.504 646.225 146.56 644.177 150.4C642.193 154.24 639.473 157.024 636.017 158.752C632.625 160.48 628.721 161.344 624.305 161.344C619.889 161.344 615.953 160.48 612.497 158.752C609.041 157.024 606.321 154.24 604.337 150.4C602.353 146.56 601.361 141.504 601.361 135.232C601.361 128.96 602.353 123.904 604.337 120.064C606.321 116.224 609.041 113.44 612.497 111.712C615.953 109.92 619.889 109.024 624.305 109.024ZM624.305 110.944C621.297 110.944 618.833 112.864 616.913 116.704C615.057 120.48 614.129 126.656 614.129 135.232C614.129 143.808 615.057 149.984 616.913 153.76C618.833 157.536 621.297 159.424 624.305 159.424C627.249 159.424 629.681 157.536 631.601 153.76C633.521 149.984 634.481 143.808 634.481 135.232C634.481 126.656 633.521 120.48 631.601 116.704C629.681 112.864 627.249 110.944 624.305 110.944Z" fill="#3A3330"/>
</svg>
