<svg xmlns="http://www.w3.org/2000/svg" viewBox="0 0 900 560" font-family="system-ui,-apple-system,sans-serif">
  <!-- App background -->
  <rect width="900" height="560" fill="#F4F3F0"/>

  <!-- Top nav -->
  <rect width="900" height="50" fill="#1A1A2E"/>
  <text x="20" y="31" fill="#C8A96E" font-size="16" font-weight="700" font-family="Georgia,serif" letter-spacing=".5">Século</text>
  <text x="77" y="31" fill="rgba(255,255,255,.55)" font-size="12">Explorer</text>
  <rect x="760" y="13" width="120" height="26" rx="5" fill="#C8A96E"/>
  <text x="820" y="30" fill="#1A1A2E" font-size="11" font-weight="700" text-anchor="middle">Pesquisar</text>

  <!-- Left sidebar -->
  <rect x="0" y="50" width="242" height="510" fill="#1E1B18"/>

  <!-- Location field -->
  <text x="16" y="80" fill="rgba(200,169,110,.65)" font-size="8.5" letter-spacing="1.3" font-weight="600">LOCALIZAÇÃO</text>
  <rect x="14" y="86" width="214" height="30" rx="5" fill="rgba(255,255,255,.07)" stroke="rgba(200,169,110,.35)" stroke-width="1"/>
  <text x="26" y="105" fill="rgba(255,255,255,.7)" font-size="11">📍  Cascais · Lisboa</text>

  <!-- Op tabs -->
  <rect x="14" y="124" width="104" height="26" rx="5" fill="#C8A96E"/>
  <text x="66" y="141" fill="#1A1A2E" font-size="11" font-weight="700" text-anchor="middle">Comprar</text>
  <rect x="124" y="124" width="104" height="26" rx="5" fill="rgba(255,255,255,.06)"/>
  <text x="176" y="141" fill="rgba(255,255,255,.35)" font-size="11" text-anchor="middle">Arrendar</text>

  <!-- Type -->
  <text x="14" y="170" fill="rgba(200,169,110,.65)" font-size="8.5" letter-spacing="1.3" font-weight="600">TIPO</text>
  <rect x="14" y="176" width="60" height="22" rx="4" fill="#C8A96E"/>
  <text x="44" y="190" fill="#1A1A2E" font-size="10" font-weight="600" text-anchor="middle">Apto</text>
  <rect x="80" y="176" width="68" height="22" rx="4" fill="rgba(255,255,255,.07)"/>
  <text x="114" y="190" fill="rgba(255,255,255,.4)" font-size="10" text-anchor="middle">Moradia</text>
  <rect x="154" y="176" width="60" height="22" rx="4" fill="rgba(255,255,255,.07)"/>
  <text x="184" y="190" fill="rgba(255,255,255,.4)" font-size="10" text-anchor="middle">Terreno</text>

  <!-- Price -->
  <text x="14" y="216" fill="rgba(200,169,110,.65)" font-size="8.5" letter-spacing="1.3" font-weight="600">PREÇO</text>
  <rect x="14" y="222" width="100" height="22" rx="4" fill="rgba(255,255,255,.08)"/>
  <text x="24" y="236" fill="rgba(255,255,255,.55)" font-size="10">€ 200,000</text>
  <rect x="122" y="222" width="106" height="22" rx="4" fill="rgba(255,255,255,.08)"/>
  <text x="132" y="236" fill="rgba(255,255,255,.55)" font-size="10">€ 750,000</text>

  <!-- Area -->
  <text x="14" y="262" fill="rgba(200,169,110,.65)" font-size="8.5" letter-spacing="1.3" font-weight="600">ÁREA / QUARTOS</text>
  <rect x="14" y="268" width="100" height="22" rx="4" fill="rgba(255,255,255,.08)"/>
  <text x="24" y="282" fill="rgba(255,255,255,.55)" font-size="10">min 80 m²</text>
  <rect x="122" y="268" width="106" height="22" rx="4" fill="rgba(255,255,255,.08)"/>
  <text x="132" y="282" fill="rgba(255,255,255,.55)" font-size="10">2+ quartos</text>

  <!-- Portals -->
  <text x="14" y="310" fill="rgba(200,169,110,.65)" font-size="8.5" letter-spacing="1.3" font-weight="600">PORTAIS ACTIVOS</text>
  <rect x="14" y="318" width="12" height="12" rx="2" fill="#C8A96E"/>
  <text x="32" y="328" fill="rgba(255,255,255,.75)" font-size="10">Idealista</text>
  <rect x="14" y="336" width="12" height="12" rx="2" fill="#C8A96E"/>
  <text x="32" y="346" fill="rgba(255,255,255,.75)" font-size="10">ImóVirtual</text>
  <rect x="14" y="354" width="12" height="12" rx="2" fill="#C8A96E"/>
  <text x="32" y="364" fill="rgba(255,255,255,.75)" font-size="10">Supercasa</text>
  <rect x="14" y="372" width="12" height="12" rx="2" fill="#C8A96E"/>
  <text x="32" y="382" fill="rgba(255,255,255,.75)" font-size="10">LuxuryEstate</text>
  <rect x="14" y="390" width="12" height="12" rx="2" fill="#C8A96E"/>
  <text x="32" y="400" fill="rgba(255,255,255,.75)" font-size="10">Kyero</text>
  <rect x="124" y="318" width="12" height="12" rx="2" fill="#C8A96E"/>
  <text x="142" y="328" fill="rgba(255,255,255,.75)" font-size="10">Casa Sapo</text>
  <rect x="124" y="336" width="12" height="12" rx="2" fill="#C8A96E"/>
  <text x="142" y="346" fill="rgba(255,255,255,.75)" font-size="10">Portadafrente</text>
  <rect x="124" y="354" width="12" height="12" rx="2" fill="rgba(255,255,255,.12)" stroke="rgba(255,255,255,.25)" stroke-width="1"/>
  <text x="142" y="364" fill="rgba(255,255,255,.3)" font-size="10">JamesEdition</text>

  <!-- Search button -->
  <rect x="14" y="440" width="214" height="38" rx="7" fill="#C8A96E"/>
  <text x="121" y="463" fill="#1A1A2E" font-size="13" font-weight="700" text-anchor="middle">Pesquisar</text>

  <!-- Right content area -->
  <!-- Status bar -->
  <rect x="242" y="50" width="658" height="44" fill="#FFFFFF" stroke="#E8E4DB" stroke-width="1"/>
  <text x="258" y="71" fill="#1A1A2E" font-size="13" font-weight="600">47 imóveis encontrados</text>
  <text x="258" y="86" fill="#5C5750" font-size="10">9 portais pesquisados · ordenar por Score ▾</text>
  <rect x="796" y="60" width="88" height="24" rx="5" fill="#F4F3F0" stroke="#E8E4DB" stroke-width="1"/>
  <text x="840" y="75" fill="#5C5750" font-size="10" text-anchor="middle">⊞  Grade</text>

  <!-- Property cards row 1 -->
  <!-- Card 1 -->
  <rect x="252" y="104" width="196" height="200" rx="8" fill="#FFFFFF" stroke="#E8E4DB" stroke-width="1"/>
  <rect x="252" y="104" width="196" height="100" rx="8" fill="#D8D4CC"/>
  <rect x="252" y="164" width="196" height="40" fill="#D8D4CC"/>
  <text x="264" y="226" fill="#1A1A2E" font-size="12" font-weight="700">€ 380,000</text>
  <text x="264" y="240" fill="#5C5750" font-size="10">T2 · 89 m² · Cascais</text>
  <text x="264" y="254" fill="rgba(91,87,80,.6)" font-size="9">ImóVirtual</text>
  <rect x="382" y="244" width="52" height="18" rx="9" fill="rgba(200,169,110,.15)" stroke="rgba(200,169,110,.4)" stroke-width="1"/>
  <text x="408" y="256" fill="#C8A96E" font-size="9" font-weight="600" text-anchor="middle">Score 87</text>

  <!-- Card 2 -->
  <rect x="462" y="104" width="196" height="200" rx="8" fill="#FFFFFF" stroke="#E8E4DB" stroke-width="1"/>
  <rect x="462" y="104" width="196" height="100" rx="8" fill="#C8C0B0"/>
  <rect x="462" y="164" width="196" height="40" fill="#C8C0B0"/>
  <text x="474" y="226" fill="#1A1A2E" font-size="12" font-weight="700">€ 520,000</text>
  <text x="474" y="240" fill="#5C5750" font-size="10">T3 · 124 m² · Estoril</text>
  <text x="474" y="254" fill="rgba(91,87,80,.6)" font-size="9">Idealista</text>
  <rect x="592" y="244" width="52" height="18" rx="9" fill="rgba(200,169,110,.15)" stroke="rgba(200,169,110,.4)" stroke-width="1"/>
  <text x="618" y="256" fill="#C8A96E" font-size="9" font-weight="600" text-anchor="middle">Score 79</text>

  <!-- Card 3 -->
  <rect x="672" y="104" width="212" height="200" rx="8" fill="#FFFFFF" stroke="#E8E4DB" stroke-width="1"/>
  <rect x="672" y="104" width="212" height="100" rx="8" fill="#B8B4A8"/>
  <rect x="672" y="164" width="212" height="40" fill="#B8B4A8"/>
  <text x="684" y="226" fill="#1A1A2E" font-size="12" font-weight="700">€ 295,000</text>
  <text x="684" y="240" fill="#5C5750" font-size="10">T2 · 75 m² · Oeiras</text>
  <text x="684" y="254" fill="rgba(91,87,80,.6)" font-size="9">Supercasa</text>
  <rect x="802" y="244" width="52" height="18" rx="9" fill="rgba(200,169,110,.15)" stroke="rgba(200,169,110,.4)" stroke-width="1"/>
  <text x="828" y="256" fill="#C8A96E" font-size="9" font-weight="600" text-anchor="middle">Score 74</text>

  <!-- Row 2 partial cards -->
  <rect x="252" y="318" width="196" height="185" rx="8" fill="#FFFFFF" stroke="#E8E4DB" stroke-width="1"/>
  <rect x="252" y="318" width="196" height="90" rx="8" fill="#D0CCBF"/>
  <rect x="252" y="368" width="196" height="40" fill="#D0CCBF"/>
  <text x="264" y="430" fill="#1A1A2E" font-size="12" font-weight="700">€ 615,000</text>
  <text x="264" y="444" fill="#5C5750" font-size="10">T4 · 158 m² · Sintra</text>
  <text x="264" y="458" fill="rgba(91,87,80,.6)" font-size="9">LuxuryEstate</text>
  <rect x="382" y="448" width="52" height="18" rx="9" fill="rgba(200,169,110,.15)" stroke="rgba(200,169,110,.4)" stroke-width="1"/>
  <text x="408" y="460" fill="#C8A96E" font-size="9" font-weight="600" text-anchor="middle">Score 71</text>

  <rect x="462" y="318" width="196" height="185" rx="8" fill="#FFFFFF" stroke="#E8E4DB" stroke-width="1"/>
  <rect x="462" y="318" width="196" height="90" rx="8" fill="#C4C0B4"/>
  <rect x="462" y="368" width="196" height="40" fill="#C4C0B4"/>
  <text x="474" y="430" fill="#1A1A2E" font-size="12" font-weight="700">€ 440,000</text>
  <text x="474" y="444" fill="#5C5750" font-size="10">T3 · 105 m² · Cascais</text>
  <text x="474" y="458" fill="rgba(91,87,80,.6)" font-size="9">Kyero</text>

  <rect x="672" y="318" width="212" height="185" rx="8" fill="#FFFFFF" stroke="#E8E4DB" stroke-width="1"/>
  <rect x="672" y="318" width="212" height="90" rx="8" fill="#BCBCB0"/>
  <rect x="672" y="368" width="212" height="40" fill="#BCBCB0"/>
  <text x="684" y="430" fill="#1A1A2E" font-size="12" font-weight="700">€ 330,000</text>
  <text x="684" y="444" fill="#5C5750" font-size="10">T2 · 80 m² · Amadora</text>
  <text x="684" y="458" fill="rgba(91,87,80,.6)" font-size="9">Portadafrente</text>
</svg>
